<svg width="305" height="42" viewBox="0 0 305 42" fill="none" xmlns="http://www.w3.org/2000/svg">
<path d="M62.6793 33.5533V31.0228C64.1252 33.4448 66.8725 33.987 68.427 33.987C73.054 33.987 76.9943 30.0468 76.9943 24.263C76.9943 18.7322 73.4517 14.5027 68.2462 14.5027C66.4749 14.5027 64.4506 15.1172 63.1853 17.0331V7.7067H56.8954V33.5533H62.6793ZM63.0408 24.1907C63.0408 21.5879 64.7036 19.9974 66.9087 19.9974C68.9692 19.9974 70.6682 21.5879 70.6682 24.1907C70.6682 26.7934 68.9692 28.4924 66.9087 28.4924C64.7036 28.4924 63.0408 26.8295 63.0408 24.1907Z" fill="#170F49"/>
<path d="M92.8115 14.6473C92.5223 14.5389 92.1246 14.5027 91.6547 14.5027C89.1965 14.5027 87.3891 15.8402 86.4131 18.1176V14.9365H80.1593V33.5533H86.4492V26.7211C86.4492 22.817 88.2205 20.395 91.4016 20.395C92.0523 20.395 92.5223 20.4673 92.8115 20.6119V14.6473Z" fill="#170F49"/>
<path d="M95.2332 33.5533H101.523V14.9365H95.2332V33.5533ZM94.9801 9.73104C94.9801 11.6108 96.4261 12.9845 98.342 12.9845C100.258 12.9845 101.74 11.6108 101.74 9.73104C101.74 7.85129 100.258 6.47763 98.342 6.47763C96.4261 6.47763 94.9801 7.85129 94.9801 9.73104Z" fill="#170F49"/>
<path d="M110.156 24.3353L103.757 33.5533H110.734L113.771 28.637L116.807 33.5533H123.784L117.385 24.3353L123.928 14.9365H116.771L113.771 20.1058L110.77 14.9365H103.613L110.156 24.3353Z" fill="#170F49"/>
<path d="M131.175 18.5875H133.561V26.0342C133.561 30.3721 136.019 32.758 140.068 32.758C141.911 32.758 143.321 32.3603 144.297 31.8904V26.5765C143.538 27.1187 142.634 27.2633 141.875 27.2633C140.718 27.2633 139.851 26.5765 139.851 24.9859V18.5875H143.791V13.7074H139.851V8.68271H133.742V13.7074H131.175V18.5875Z" fill="#4A3AFF"/>
<path d="M163.634 24.516C163.815 23.9376 163.996 22.817 163.996 21.841C163.996 16.7439 160.381 13.2736 155.067 13.2736C149.572 13.2736 145.379 17.5392 145.379 23.0339C145.379 28.5285 149.464 32.758 155.826 32.758C158.971 32.758 161.429 31.9627 163.887 29.7576L160.706 25.7812C159.803 26.6488 158.321 27.5164 156.296 27.5164C154.163 27.5164 152.139 26.6126 151.85 24.516H163.634ZM154.923 18.2622C156.549 18.2622 157.814 19.2744 157.923 20.8649V20.9011H151.741C151.85 19.2021 153.296 18.2622 154.923 18.2622Z" fill="#4A3AFF"/>
<path d="M167.088 13.7074V32.3242H173.377V22.5278C173.377 20.2142 174.57 18.7683 176.342 18.7683C178.221 18.7683 179.234 19.9251 179.234 22.094V32.3242H185.524V22.5278C185.524 20.2142 186.789 18.7683 188.488 18.7683C190.367 18.7683 191.38 19.9251 191.38 22.094V32.3242H197.67V20.9734C197.67 16.1656 194.995 13.2736 190.476 13.2736C187.331 13.2736 185.632 14.6834 184.367 16.3102C183.102 14.322 181.077 13.2736 178.33 13.2736C176.125 13.2736 174.353 14.0328 173.088 15.9125V13.7074H167.088Z" fill="#4A3AFF"/>
<path d="M201.93 39.554H208.22V30.5167C209.413 32.2519 211.51 32.758 213.281 32.758C218.487 32.758 222.029 28.5285 222.029 22.9977C222.029 17.2139 217.981 13.2736 213.353 13.2736C211.835 13.2736 209.269 13.8159 207.714 16.2379V13.7074H201.93V39.554ZM208.076 23.07C208.076 20.4311 209.739 18.7683 211.944 18.7683C214.004 18.7683 215.703 20.4673 215.703 23.07C215.703 25.6728 214.004 27.2633 211.944 27.2633C209.739 27.2633 208.076 25.6728 208.076 23.07Z" fill="#4A3AFF"/>
<path d="M224.977 26.7572C224.977 30.6613 227.219 32.758 231.123 32.758C232.388 32.758 233.364 32.5411 234.051 32.2157V27.1549C233.581 27.3356 233.147 27.3718 232.822 27.3718C231.376 27.3718 231.267 26.468 231.267 25.6005V6.47762H224.977V26.7572Z" fill="#4A3AFF"/>
<path d="M241.827 32.758C244.285 32.758 245.912 31.6735 246.635 30.2637V32.3242H252.455V20.6842C252.455 16.0571 249.274 13.2736 243.888 13.2736C240.237 13.2736 237.236 14.8642 235.646 16.8885L238.935 20.8288C239.911 19.7082 241.43 18.6237 243.562 18.6237C245.117 18.6237 246.454 19.1659 246.454 20.7203V20.7565L241.647 21.6964C237.742 22.5278 235.574 24.4075 235.574 27.1549C235.574 30.4444 238.212 32.758 241.827 32.758ZM246.454 24.5521V24.8413C246.454 26.9018 245.298 28.2393 243.309 28.2393C242.189 28.2393 241.574 27.6609 241.574 26.7572C241.574 25.8535 242.297 25.3836 243.418 25.1305L246.454 24.5521Z" fill="#4A3AFF"/>
<path d="M254.696 18.5875H257.082V26.0342C257.082 30.3721 259.54 32.758 263.589 32.758C265.432 32.758 266.842 32.3603 267.818 31.8904V26.5765C267.059 27.1187 266.155 27.2633 265.396 27.2633C264.239 27.2633 263.372 26.5765 263.372 24.9859V18.5875H267.312V13.7074H263.372V8.68271H257.263V13.7074H254.696V18.5875Z" fill="#4A3AFF"/>
<path d="M287.155 24.516C287.336 23.9376 287.517 22.817 287.517 21.841C287.517 16.7439 283.902 13.2736 278.588 13.2736C273.093 13.2736 268.9 17.5392 268.9 23.0339C268.9 28.5285 272.985 32.758 279.347 32.758C282.492 32.758 284.95 31.9627 287.408 29.7576L284.227 25.7812C283.324 26.6488 281.841 27.5164 279.817 27.5164C277.684 27.5164 275.66 26.6126 275.371 24.516H287.155ZM278.443 18.2622C280.07 18.2622 281.335 19.2744 281.444 20.8649V20.9011H275.262C275.371 19.2021 276.817 18.2622 278.443 18.2622Z" fill="#4A3AFF"/>
<path d="M297.043 32.758C301.67 32.758 304.779 30.1914 304.779 26.8657C304.779 23.1785 301.923 22.2024 298.995 21.0457C296.356 19.9251 295.236 19.7443 295.236 19.0575C295.236 18.3706 296.067 17.973 297.043 17.973C298.778 17.973 299.754 18.8044 300.369 19.8528L304.273 17.0331C303.116 14.828 300.405 13.2736 297.224 13.2736C293.03 13.2736 289.524 15.298 289.524 19.0213C289.524 22.0217 291.584 23.5038 295.236 24.8052C297.802 25.7089 299.067 26.0342 299.067 27.0103C299.067 27.6971 298.381 28.0586 297.115 28.0586C295.236 28.0586 293.79 26.9018 292.922 25.4197L288.909 28.4924C290.464 31.2397 293.573 32.758 297.043 32.758Z" fill="#4A3AFF"/>
<path fill-rule="evenodd" clip-rule="evenodd" d="M34.8723 12.1671C38.1139 12.1671 40.7418 9.53926 40.7418 6.29762C40.7418 3.05599 38.1139 0.428123 34.8723 0.428123C31.6306 0.428123 29.0028 3.05599 29.0028 6.29762C29.0028 9.53926 31.6306 12.1671 34.8723 12.1671Z" fill="#8055FA"/>
<path fill-rule="evenodd" clip-rule="evenodd" d="M34.8721 26.2499C38.1137 26.2499 40.7416 23.6224 40.7416 20.3812C40.7416 17.14 38.1137 14.5124 34.8721 14.5124C31.6305 14.5124 29.0026 17.14 29.0026 20.3812C29.0026 23.6224 31.6305 26.2499 34.8721 26.2499Z" fill="#7550FB"/>
<path fill-rule="evenodd" clip-rule="evenodd" d="M34.8721 40.8581C38.1137 40.8581 40.7416 38.2302 40.7416 34.9886C40.7416 31.747 38.1137 29.1191 34.8721 29.1191C31.6305 29.1191 29.0026 31.747 29.0026 34.9886C29.0026 38.2302 31.6305 40.8581 34.8721 40.8581Z" fill="#6A4AFC"/>
<path fill-rule="evenodd" clip-rule="evenodd" d="M20.2648 26.2497C23.506 26.2497 26.1335 23.6222 26.1335 20.381C26.1335 17.1398 23.506 14.5123 20.2648 14.5123C17.0236 14.5123 14.3961 17.1398 14.3961 20.381C14.3961 23.6222 17.0236 26.2497 20.2648 26.2497Z" fill="#6045FD"/>
<path fill-rule="evenodd" clip-rule="evenodd" d="M20.2642 40.858C23.5054 40.858 26.1329 38.2302 26.1329 34.9885C26.1329 31.7469 23.5054 29.119 20.2642 29.119C17.023 29.119 14.3955 31.7469 14.3955 34.9885C14.3955 38.2302 17.023 40.858 20.2642 40.858Z" fill="#553FFE"/>
<path fill-rule="evenodd" clip-rule="evenodd" d="M6.18041 40.8581C9.42205 40.8581 12.0499 38.2302 12.0499 34.9886C12.0499 31.7469 9.42205 29.1191 6.18041 29.1191C2.93878 29.1191 0.310913 31.7469 0.310913 34.9886C0.310913 38.2302 2.93878 40.8581 6.18041 40.8581Z" fill="#4A3AFF"/>
</svg>
